<svg xmlns="http://www.w3.org/2000/svg" viewBox="0 0 64 64" role="img" aria-label="Weather app icon">
  <defs>
    <linearGradient id="sky" x1="0" x2="1" y1="0" y2="1">
      <stop offset="0%" stop-color="#fff6d6" />
      <stop offset="100%" stop-color="#cce8e3" />
    </linearGradient>
  </defs>
  <rect width="64" height="64" rx="18" fill="url(#sky)" />
  <circle cx="24" cy="24" r="10" fill="#ffb703" />
  <g fill="#ffb703">
    <rect x="23" y="7" width="2" height="7" rx="1" />
    <rect x="23" y="34" width="2" height="7" rx="1" />
    <rect x="7" y="23" width="7" height="2" rx="1" />
    <rect x="34" y="23" width="7" height="2" rx="1" />
    <rect x="11.5" y="12.9" width="2" height="7" rx="1" transform="rotate(-45 12.5 16.4)" />
    <rect x="34.5" y="35.9" width="2" height="7" rx="1" transform="rotate(-45 35.5 39.4)" />
    <rect x="12.5" y="34.9" width="2" height="7" rx="1" transform="rotate(45 13.5 38.4)" />
    <rect x="35.5" y="11.9" width="2" height="7" rx="1" transform="rotate(45 36.5 15.4)" />
  </g>
  <path d="M45 47H22.5a8.5 8.5 0 1 1 2.9-16.5A11 11 0 0 1 46 34c3.3.3 6 3 6 6.5S48.7 47 45 47Z" fill="#ffffff" fill-opacity="0.95" />
</svg>